<svg xmlns="http://www.w3.org/2000/svg" width="880" height="292" viewBox="0 0 880 292" font-family="Inter, -apple-system, sans-serif" font-size="13"><style>.title{font-size:18px;font-weight:600;fill:#1a1a1a}.header{font-size:11px;font-weight:600;fill:#666;text-transform:uppercase;letter-spacing:.05em}.tech{font-size:14px;font-weight:500;fill:#1a1a1a}.k{font-size:11px;fill:#888}.stat{font-size:12px;fill:#444;font-variant-numeric:tabular-nums}.axis{stroke:#bbb;stroke-width:1}.ref{stroke:#d0d0d0;stroke-width:1;stroke-dasharray:3 3}.ci{stroke:#2c5282;stroke-width:2}.point{fill:#2c5282;stroke:#fff;stroke-width:1.5}.caption{font-size:11px;fill:#666}</style><text x="40" y="34" class="title">closing-evidence-atlas — Phase 3 pilot posteriors</text><text x="40" y="70" class="header">Technique</text><text x="500.0" y="70" class="header" text-anchor="middle">Posterior μ (Cohen's d scale)</text><text x="720" y="70" class="header">Estimate [95% CrI]</text><text x="40" y="122.0" class="tech">extreme-anchor</text><text x="40" y="140.0" class="k">k = 2 studies</text><line x1="397.8475756217442" y1="118.0" x2="578.9632618363137" y2="118.0" class="ci"/><line x1="397.8475756217442" y1="112.0" x2="397.8475756217442" y2="124.0" class="ci"/><line x1="578.9632618363137" y1="112.0" x2="578.9632618363137" y2="124.0" class="ci"/><circle cx="503.3492576457595" cy="118.0" r="6" class="point"/><text x="720" y="122.0" class="stat">+0.439 [+0.043, +0.723]</text><text x="720" y="140.0" class="stat" fill="#888">P(μ>0) = 0.98</text><text x="40" y="178.0" class="tech">gain-framing</text><text x="40" y="196.0" class="k">k = 2 studies</text><line x1="333.3011770988747" y1="174.0" x2="666.6988229011254" y2="174.0" class="ci"/><line x1="333.3011770988747" y1="168.0" x2="333.3011770988747" y2="180.0" class="ci"/><line x1="666.6988229011254" y1="168.0" x2="666.6988229011254" y2="180.0" class="ci"/><circle cx="529.8826067282807" cy="174.0" r="6" class="point"/><text x="720" y="178.0" class="stat">+0.539 [-0.200, +1.053]</text><text x="720" y="196.0" class="stat" fill="#888">P(μ>0) = 0.93</text><line x1="320" y1="217" x2="680" y2="217" class="axis"/><line x1="320.02235665593736" y1="217" x2="320.02235665593736" y2="222" class="axis"/><text x="320.02235665593736" y="237" class="stat" text-anchor="middle">-0.25</text><line x1="453.0341276446841" y1="217" x2="453.0341276446841" y2="222" class="axis"/><text x="453.0341276446841" y="237" class="stat" text-anchor="middle">+0.25</text><line x1="586.0458986334309" y1="217" x2="586.0458986334309" y2="222" class="axis"/><text x="586.0458986334309" y="237" class="stat" text-anchor="middle">+0.75</text><line x1="386.5282421503107" y1="85" x2="386.5282421503107" y2="217" class="ref"/><text x="40" y="267" class="caption">Posterior median + 95% credible interval per pre-registered Bayesian random-effects model. CrI from importance-sampled posterior; pilot k = 2 per technique → wide intervals expected.</text><text x="40" y="283" class="caption">Final Phase-3 forest plot will use brms-Stan inference with k = 20-100 per technique. Reference line at μ = 0 (no effect).</text></svg>