<svg xmlns="http://www.w3.org/2000/svg" width="880" height="348" viewBox="0 0 880 348" font-family="Inter, -apple-system, sans-serif" font-size="13"><style>.title{font-size:18px;font-weight:600;fill:#1a1a1a}.header{font-size:11px;font-weight:600;fill:#666;text-transform:uppercase;letter-spacing:.05em}.tech{font-size:14px;font-weight:500;fill:#1a1a1a}.k{font-size:11px;fill:#888}.stat{font-size:12px;fill:#444;font-variant-numeric:tabular-nums}.axis{stroke:#bbb;stroke-width:1}.ref{stroke:#d0d0d0;stroke-width:1;stroke-dasharray:3 3}.ci{stroke:#2c5282;stroke-width:2}.point{fill:#2c5282;stroke:#fff;stroke-width:1.5}.caption{font-size:11px;fill:#666}</style><text x="40" y="34" class="title">closing-evidence-atlas — Phase 3 pilot posteriors</text><text x="40" y="70" class="header">Technique</text><text x="500.0" y="70" class="header" text-anchor="middle">Posterior μ (Cohen's d scale)</text><text x="720" y="70" class="header">Estimate [95% CrI]</text><text x="40" y="122.0" class="tech">extreme-anchor</text><text x="40" y="140.0" class="k">k = 2 studies</text><line x1="360.0197119886942" y1="118.0" x2="654.4164337074938" y2="118.0" class="ci"/><line x1="360.0197119886942" y1="112.0" x2="360.0197119886942" y2="124.0" class="ci"/><line x1="654.4164337074938" y1="112.0" x2="654.4164337074938" y2="124.0" class="ci"/><circle cx="531.5087197761974" cy="118.0" r="6" class="point"/><text x="720" y="122.0" class="stat">+0.439 [+0.043, +0.723]</text><text x="720" y="140.0" class="stat" fill="#888">P(μ>0) = 0.98</text><text x="40" y="178.0" class="tech">gain-framing</text><text x="40" y="196.0" class="k">k = 6 studies</text><line x1="450.17629568962775" y1="174.0" x2="658.3794379451442" y2="174.0" class="ci"/><line x1="450.17629568962775" y1="168.0" x2="450.17629568962775" y2="180.0" class="ci"/><line x1="658.3794379451442" y1="168.0" x2="658.3794379451442" y2="180.0" class="ci"/><circle cx="558.3594321086978" cy="174.0" r="6" class="point"/><text x="720" y="178.0" class="stat">+0.501 [+0.251, +0.733]</text><text x="720" y="196.0" class="stat" fill="#888">P(μ>0) = 1.00</text><text x="40" y="234.0" class="tech">loss-framing</text><text x="40" y="252.0" class="k">k = 5 studies</text><line x1="444.20753244659346" y1="230.0" x2="535.518952896604" y2="230.0" class="ci"/><line x1="444.20753244659346" y1="224.0" x2="444.20753244659346" y2="236.0" class="ci"/><line x1="535.518952896604" y1="224.0" x2="535.518952896604" y2="236.0" class="ci"/><circle cx="489.82520562917307" cy="230.0" r="6" class="point"/><text x="720" y="234.0" class="stat">+0.343 [+0.237, +0.448]</text><text x="720" y="252.0" class="stat" fill="#888">P(μ>0) = 1.00</text><line x1="320" y1="273" x2="680" y2="273" class="axis"/><line x1="320.0" y1="273" x2="320.0" y2="278" class="axis"/><text x="320.0" y="293" class="stat" text-anchor="middle">-0.05</text><line x1="428.1028102742786" y1="273" x2="428.1028102742786" y2="278" class="axis"/><text x="428.1028102742786" y="293" class="stat" text-anchor="middle">+0.20</text><line x1="536.2056205485572" y1="273" x2="536.2056205485572" y2="278" class="axis"/><text x="536.2056205485572" y="293" class="stat" text-anchor="middle">+0.45</text><line x1="644.3084308228358" y1="273" x2="644.3084308228358" y2="278" class="axis"/><text x="644.3084308228358" y="293" class="stat" text-anchor="middle">+0.70</text><line x1="341.6205620548557" y1="85" x2="341.6205620548557" y2="273" class="ref"/><text x="40" y="323" class="caption">Posterior median + 95% credible interval per pre-registered Bayesian random-effects model. CrI from importance-sampled posterior; pilot k = 2 per technique → wide intervals expected.</text><text x="40" y="339" class="caption">Final Phase-3 forest plot will use brms-Stan inference with k = 20-100 per technique. Reference line at μ = 0 (no effect).</text></svg>