<svg xmlns="http://www.w3.org/2000/svg" width="880" height="516" viewBox="0 0 880 516" font-family="Inter, -apple-system, sans-serif" font-size="13"><style>.title{font-size:18px;font-weight:600;fill:#1a1a1a}.header{font-size:11px;font-weight:600;fill:#666;text-transform:uppercase;letter-spacing:.05em}.tech{font-size:14px;font-weight:500;fill:#1a1a1a}.k{font-size:11px;fill:#888}.stat{font-size:12px;fill:#444;font-variant-numeric:tabular-nums}.axis{stroke:#bbb;stroke-width:1}.ref{stroke:#d0d0d0;stroke-width:1;stroke-dasharray:3 3}.ci{stroke:#2c5282;stroke-width:2}.point{fill:#2c5282;stroke:#fff;stroke-width:1.5}.caption{font-size:11px;fill:#666}</style><text x="40" y="34" class="title">closing-evidence-atlas — Phase 3 pilot posteriors</text><text x="40" y="70" class="header">Technique</text><text x="500.0" y="70" class="header" text-anchor="middle">Posterior μ (Cohen's d scale)</text><text x="720" y="70" class="header">Estimate [95% CrI]</text><text x="40" y="122.0" class="tech">commitment-consistency</text><text x="40" y="140.0" class="k">k = 2 studies</text><line x1="477.35833730041395" y1="118.0" x2="558.3360993123398" y2="118.0" class="ci"/><line x1="477.35833730041395" y1="112.0" x2="477.35833730041395" y2="124.0" class="ci"/><line x1="558.3360993123398" y1="112.0" x2="558.3360993123398" y2="124.0" class="ci"/><circle cx="523.8074979434789" cy="118.0" r="6" class="point"/><text x="720" y="122.0" class="stat">+0.590 [+0.331, +0.782]</text><text x="720" y="140.0" class="stat" fill="#888">P(μ>0) = 1.00</text><text x="40" y="178.0" class="tech">extreme-anchor</text><text x="40" y="196.0" class="k">k = 2 studies</text><line x1="425.6160565558364" y1="174.0" x2="551.7513697417213" y2="174.0" class="ci"/><line x1="425.6160565558364" y1="168.0" x2="425.6160565558364" y2="180.0" class="ci"/><line x1="551.7513697417213" y1="168.0" x2="551.7513697417213" y2="180.0" class="ci"/><circle cx="495.9946588011925" cy="174.0" r="6" class="point"/><text x="720" y="178.0" class="stat">+0.435 [+0.043, +0.745]</text><text x="720" y="196.0" class="stat" fill="#888">P(μ>0) = 0.98</text><text x="40" y="234.0" class="tech">gain-framing</text><text x="40" y="252.0" class="k">k = 6 studies</text><line x1="463.9627804931123" y1="230.0" x2="548.6015159731846" y2="230.0" class="ci"/><line x1="463.9627804931123" y1="224.0" x2="463.9627804931123" y2="236.0" class="ci"/><line x1="548.6015159731846" y1="224.0" x2="548.6015159731846" y2="236.0" class="ci"/><circle cx="508.5700187853505" cy="230.0" r="6" class="point"/><text x="720" y="234.0" class="stat">+0.505 [+0.257, +0.727]</text><text x="720" y="252.0" class="stat" fill="#888">P(μ>0) = 1.00</text><text x="40" y="290.0" class="tech">loss-framing</text><text x="40" y="308.0" class="k">k = 5 studies</text><line x1="460.9878168111719" y1="286.0" x2="499.7557457896259" y2="286.0" class="ci"/><line x1="460.9878168111719" y1="280.0" x2="460.9878168111719" y2="292.0" class="ci"/><line x1="499.7557457896259" y1="280.0" x2="499.7557457896259" y2="292.0" class="ci"/><circle cx="479.470145741685" cy="286.0" r="6" class="point"/><text x="720" y="290.0" class="stat">+0.343 [+0.240, +0.456]</text><text x="720" y="308.0" class="stat" fill="#888">P(μ>0) = 1.00</text><text x="40" y="346.0" class="tech">regulatory-fit</text><text x="40" y="364.0" class="k">k = 2 studies</text><line x1="459.5922500981299" y1="342.0" x2="532.2565702413717" y2="342.0" class="ci"/><line x1="459.5922500981299" y1="336.0" x2="459.5922500981299" y2="348.0" class="ci"/><line x1="532.2565702413717" y1="336.0" x2="532.2565702413717" y2="348.0" class="ci"/><circle cx="498.6274587031867" cy="342.0" r="6" class="point"/><text x="720" y="346.0" class="stat">+0.450 [+0.232, +0.637]</text><text x="720" y="364.0" class="stat" fill="#888">P(μ>0) = 1.00</text><text x="40" y="402.0" class="tech">social-proof</text><text x="40" y="420.0" class="k">k = 2 studies</text><line x1="328.99047616458694" y1="398.0" x2="671.0095238354131" y2="398.0" class="ci"/><line x1="328.99047616458694" y1="392.0" x2="328.99047616458694" y2="404.0" class="ci"/><line x1="671.0095238354131" y1="392.0" x2="671.0095238354131" y2="404.0" class="ci"/><circle cx="510.48245090945136" cy="398.0" r="6" class="point"/><text x="720" y="402.0" class="stat">+0.515 [-0.494, +1.408]</text><text x="720" y="420.0" class="stat" fill="#888">P(μ>0) = 0.84</text><line x1="320" y1="441" x2="680" y2="441" class="axis"/><line x1="320.70534196773724" y1="441" x2="320.70534196773724" y2="446" class="axis"/><text x="320.70534196773724" y="461" class="stat" text-anchor="middle">-0.54</text><line x1="410.6101036136064" y1="441" x2="410.6101036136064" y2="446" class="axis"/><text x="410.6101036136064" y="461" class="stat" text-anchor="middle">-0.04</text><line x1="500.5148652594756" y1="441" x2="500.5148652594756" y2="446" class="axis"/><text x="500.5148652594756" y="461" class="stat" text-anchor="middle">+0.46</text><line x1="590.4196269053447" y1="441" x2="590.4196269053447" y2="446" class="axis"/><text x="590.4196269053447" y="461" class="stat" text-anchor="middle">+0.96</text><line x1="680.3243885512138" y1="441" x2="680.3243885512138" y2="446" class="axis"/><text x="680.3243885512138" y="461" class="stat" text-anchor="middle">+1.46</text><line x1="417.80248454527595" y1="85" x2="417.80248454527595" y2="441" class="ref"/><text x="40" y="491" class="caption">Posterior median + 95% credible interval per pre-registered Bayesian random-effects model. CrI from importance-sampled posterior; pilot k = 2 per technique → wide intervals expected.</text><text x="40" y="507" class="caption">Final Phase-3 forest plot will use brms-Stan inference with k = 20-100 per technique. Reference line at μ = 0 (no effect).</text></svg>