<svg xmlns="http://www.w3.org/2000/svg" width="880" height="516" viewBox="0 0 880 516" font-family="Inter, -apple-system, sans-serif" font-size="13"><style>.title{font-size:18px;font-weight:600;fill:#1a1a1a}.header{font-size:11px;font-weight:600;fill:#666;text-transform:uppercase;letter-spacing:.05em}.tech{font-size:14px;font-weight:500;fill:#1a1a1a}.k{font-size:11px;fill:#888}.stat{font-size:12px;fill:#444;font-variant-numeric:tabular-nums}.axis{stroke:#bbb;stroke-width:1}.ref{stroke:#d0d0d0;stroke-width:1;stroke-dasharray:3 3}.ci{stroke:#2c5282;stroke-width:2}.point{fill:#2c5282;stroke:#fff;stroke-width:1.5}.caption{font-size:11px;fill:#666}</style><text x="40" y="34" class="title">closing-evidence-atlas — Phase 3 pilot posteriors</text><text x="40" y="70" class="header">Technique</text><text x="500.0" y="70" class="header" text-anchor="middle">Posterior μ (Cohen's d scale)</text><text x="720" y="70" class="header">Estimate [95% CrI]</text><text x="40" y="122.0" class="tech">commitment-consistency</text><text x="40" y="140.0" class="k">k = 2 studies</text><line x1="451.8667285276481" y1="118.0" x2="553.071260636536" y2="118.0" class="ci"/><line x1="451.8667285276481" y1="112.0" x2="451.8667285276481" y2="124.0" class="ci"/><line x1="553.071260636536" y1="112.0" x2="553.071260636536" y2="124.0" class="ci"/><circle cx="509.9180435175543" cy="118.0" r="6" class="point"/><text x="720" y="122.0" class="stat">+0.590 [+0.331, +0.782]</text><text x="720" y="140.0" class="stat" fill="#888">P(μ>0) = 1.00</text><text x="40" y="178.0" class="tech">extreme-anchor</text><text x="40" y="196.0" class="k">k = 2 studies</text><line x1="387.2001684388365" y1="174.0" x2="544.8417855473151" y2="174.0" class="ci"/><line x1="387.2001684388365" y1="168.0" x2="387.2001684388365" y2="180.0" class="ci"/><line x1="544.8417855473151" y1="168.0" x2="544.8417855473151" y2="180.0" class="ci"/><circle cx="475.15806371470023" cy="174.0" r="6" class="point"/><text x="720" y="178.0" class="stat">+0.435 [+0.043, +0.745]</text><text x="720" y="196.0" class="stat" fill="#888">P(μ>0) = 0.98</text><text x="40" y="234.0" class="tech">gain-framing</text><text x="40" y="252.0" class="k">k = 9 studies</text><line x1="440.39069839482977" y1="230.0" x2="473.8450839049186" y2="230.0" class="ci"/><line x1="440.39069839482977" y1="224.0" x2="440.39069839482977" y2="236.0" class="ci"/><line x1="473.8450839049186" y1="224.0" x2="473.8450839049186" y2="236.0" class="ci"/><circle cx="457.04326771062654" cy="230.0" r="6" class="point"/><text x="720" y="234.0" class="stat">+0.354 [+0.280, +0.429]</text><text x="720" y="252.0" class="stat" fill="#888">P(μ>0) = 1.00</text><text x="40" y="290.0" class="tech">loss-framing</text><text x="40" y="308.0" class="k">k = 7 studies</text><line x1="433.47346390985695" y1="286.0" x2="469.6001875681733" y2="286.0" class="ci"/><line x1="433.47346390985695" y1="280.0" x2="433.47346390985695" y2="292.0" class="ci"/><line x1="469.6001875681733" y1="280.0" x2="469.6001875681733" y2="292.0" class="ci"/><circle cx="450.8548819629548" cy="286.0" r="6" class="point"/><text x="720" y="290.0" class="stat">+0.327 [+0.249, +0.410]</text><text x="720" y="308.0" class="stat" fill="#888">P(μ>0) = 1.00</text><text x="40" y="346.0" class="tech">regulatory-fit</text><text x="40" y="364.0" class="k">k = 3 studies</text><line x1="455.19671199557524" y1="342.0" x2="519.4971896221668" y2="342.0" class="ci"/><line x1="455.19671199557524" y1="336.0" x2="455.19671199557524" y2="348.0" class="ci"/><line x1="519.4971896221668" y1="336.0" x2="519.4971896221668" y2="348.0" class="ci"/><circle cx="486.2049910880904" cy="342.0" r="6" class="point"/><text x="720" y="346.0" class="stat">+0.484 [+0.346, +0.632]</text><text x="720" y="364.0" class="stat" fill="#888">P(μ>0) = 1.00</text><text x="40" y="402.0" class="tech">social-proof</text><text x="40" y="420.0" class="k">k = 2 studies</text><line x1="331.23613336633247" y1="398.0" x2="668.7638666336675" y2="398.0" class="ci"/><line x1="331.23613336633247" y1="392.0" x2="331.23613336633247" y2="404.0" class="ci"/><line x1="668.7638666336675" y1="392.0" x2="668.7638666336675" y2="404.0" class="ci"/><circle cx="530.7430050403387" cy="398.0" r="6" class="point"/><text x="720" y="402.0" class="stat">+0.682 [-0.206, +1.296]</text><text x="720" y="420.0" class="stat" fill="#888">P(μ>0) = 0.94</text><line x1="320" y1="441" x2="680" y2="441" class="axis"/><line x1="319.00701494424027" y1="441" x2="319.00701494424027" y2="446" class="axis"/><text x="319.00701494424027" y="461" class="stat" text-anchor="middle">-0.26</text><line x1="431.3683486075647" y1="441" x2="431.3683486075647" y2="446" class="axis"/><text x="431.3683486075647" y="461" class="stat" text-anchor="middle">+0.24</text><line x1="543.7296822708892" y1="441" x2="543.7296822708892" y2="446" class="axis"/><text x="543.7296822708892" y="461" class="stat" text-anchor="middle">+0.74</text><line x1="656.0910159342136" y1="441" x2="656.0910159342136" y2="446" class="axis"/><text x="656.0910159342136" y="461" class="stat" text-anchor="middle">+1.24</text><line x1="377.434908449169" y1="85" x2="377.434908449169" y2="441" class="ref"/><text x="40" y="491" class="caption">Posterior median + 95% credible interval per pre-registered Bayesian random-effects model. CrI from importance-sampled posterior; pilot k = 2 per technique → wide intervals expected.</text><text x="40" y="507" class="caption">Final Phase-3 forest plot will use brms-Stan inference with k = 20-100 per technique. Reference line at μ = 0 (no effect).</text></svg>